# xmcd CD database file
# Copyright (C) 1995-1998 Ti Kan
#
# Track frame offsets:
#	182
#	12057
#	23825
#	36285
#	48770
#	61012
#	72680
#	84755
#	94362
#	103212
#	114955
#	123080
#	135482
#	142992
#	150360
#	160752
#	169792
#	179932
#	188315
#	200927
#	214582
#
# Disc length: 3052 seconds
#
# Revision: 1
# Processed by: cddbd v1.4PL0 Copyright (c) Steve Scherf et al.
# Submitted via: CDex 1.30Release
#
DISCID=140bea15
DTITLE=Hank Williams - The Collectors' Edition Vol VIII - I Won't Be Home No
DTITLE=More
DYEAR=1987
DGENRE=Country
TTITLE0=Settin' the Woods on Fire
TTITLE1=You Win Again (Studio)
TTITLE2=I Won't Be Home No More (Studio)
TTITLE3=I Could Never Be Ashamed of You (Studio)
TTITLE4=Your Cheatin' Heart (Studio)
TTITLE5=Kaw-Liga (Studio)
TTITLE6=Take These Chains From My Heart (Studio)
TTITLE7=I'll Have a New Body (Live)
TTITLE8=Where the Soul of Man Never Dies (Live)
TTITLE9=Mother is Gone (Overdub)
TTITLE10=Fool About You (Overdub)
TTITLE11=The Old Home (Overdub)
TTITLE12=A House of Gold (Undub)
TTITLE13=Wearin' Out Your Walkin' Shoes (Undub)
TTITLE14=Leave Me Alone With the Blues (Undub)
TTITLE15=Faded Love and Winter Roses (Undub)
TTITLE16=With Tears in My Eyes (Undub)
TTITLE17=Ready to Go Home (Undub)
TTITLE18=Why Don't You Make Up Your Mind (Luke the Drifter)
TTITLE19=Be Careful of the Stones That You Throw (Luke the Drifter)
TTITLE20=Apology (Spoken)
EXTD=YEAR: 1987 ID3G:   2
EXTT0=
EXTT1=
EXTT2=
EXTT3=
EXTT4=
EXTT5=
EXTT6=
EXTT7=
EXTT8=
EXTT9=
EXTT10=
EXTT11=
EXTT12=
EXTT13=
EXTT14=
EXTT15=
EXTT16=
EXTT17=
EXTT18=
EXTT19=
EXTT20=
PLAYORDER=
